<svg width="16" height="16" viewBox="0 0 16 16" fill="none" xmlns="http://www.w3.org/2000/svg">
<path d="M8 0.5C3.858 0.5 0.5 3.858 0.5 8C0.5 12.142 3.858 15.5 8 15.5C12.142 15.5 15.5 12.142 15.5 8C15.5 3.858 12.142 0.5 8 0.5ZM4.5 4.18075L5.65475 3.75H6.5V7.25H5.51375V4.477H5.5L4.6675 4.79475L4.5 4.18075ZM5.80175 12.25C5.34375 12.25 4.9575 12.1353 4.75 12.0103L4.919 11.4165C5.0655 11.4893 5.40425 11.6245 5.74175 11.6245C6.1715 11.6245 6.38975 11.4272 6.38975 11.1718C6.38975 10.8383 6.041 10.687 5.676 10.687H5.3385V10.1193H5.66025C5.9375 10.1143 6.291 10.0157 6.291 9.729C6.291 9.52575 6.11725 9.375 5.7685 9.375C5.48 9.375 5.17475 9.49475 5.02775 9.57825L4.85925 9.005C5.07175 8.875 5.4965 8.75 5.9535 8.75C6.71025 8.75 7.13025 9.13025 7.13025 9.59325C7.13025 9.953 6.91775 10.2343 6.48175 10.3802V10.39C6.90725 10.4635 7.25 10.7705 7.25 11.2135C7.25 11.812 6.70025 12.25 5.80175 12.25ZM8.875 6.76325L9.331 6.3605C10.101 5.68825 10.4755 5.3015 10.4858 4.899C10.4858 4.61825 10.3125 4.3955 9.90575 4.3955C9.602 4.3955 9.3365 4.544 9.15125 4.682L8.91875 4.10475C9.1845 3.9085 9.5965 3.74975 10.0735 3.74975C10.8707 3.74975 11.3103 4.20475 11.3103 4.82975C11.3103 5.407 10.8815 5.86775 10.3717 6.31275L10.0465 6.577V6.58775H11.375V7.25H8.875V6.76325ZM11.5 11.4155H11.042V12.25H10.1938V11.4155H8.5V10.8822L9.94725 8.75H11.042V10.8013H11.5V11.4155Z" fill="#2d9cdb"/>
</svg>
